<?xml version="1.0" encoding="UTF-8" standalone="no"?><svg xmlns="http://www.w3.org/2000/svg" xmlns:xlink="http://www.w3.org/1999/xlink" fill="#a6a6a6" height="50" preserveAspectRatio="xMidYMid meet" version="1" viewBox="7.0 7.0 50.0 50.0" width="50" zoomAndPan="magnify"><g id="change1_1"><path d="M32,7c-13.785,0 -25,11.215 -25,25c0,13.785 11.215,25 25,25c13.785,0 25,-11.215 25,-25c0,-13.785 -11.215,-25 -25,-25Zm0,48c-12.682,0 -23,-10.317 -23,-23c0,-12.682 10.318,-23 23,-23c12.683,0 23,10.318 23,23c0,12.683 -10.317,23 -23,23Z" fill="inherit"/><path d="M32,19c3.473,0 6.737,1.353 9.192,3.808c0.391,0.391 1.023,0.391 1.414,0c0.391,-0.391 0.391,-1.023 0,-1.414c-2.833,-2.833 -6.599,-4.394 -10.606,-4.394c-4.006,0 -7.773,1.561 -10.606,4.394c-2.834,2.833 -4.394,6.6 -4.394,10.606c0,4.006 1.561,7.773 4.394,10.606c2.924,2.924 6.765,4.387 10.606,4.387c3.841,0 7.683,-1.463 10.606,-4.387c0.391,-0.391 0.391,-1.023 0,-1.414c-0.391,-0.391 -1.023,-0.391 -1.414,0c-5.068,5.068 -13.316,5.068 -18.385,0c-2.455,-2.455 -3.807,-5.719 -3.807,-9.192c0,-3.473 1.352,-6.737 3.808,-9.193c2.455,-2.454 5.72,-3.807 9.192,-3.807Z" fill="inherit"/></g></svg>